<svg xmlns="http://www.w3.org/2000/svg" version="1.1" xmlns:xlink="http://www.w3.org/1999/xlink" xmlns:svgjs="http://svgjs.dev/svgjs" viewBox="0 0 12.23458090152359 5.497209075351714"><g transform="matrix(0.7881463516711902,0,0,0.7881463516711902,5.361532218541811,1.9934618144808978)"><rect width="13.712230066263198" height="13.712230066263198" x="-5.897209075351714" y="-5.897990033131599" fill="#67a97b"></rect><g clip-path="url(#SvgjsClipPath55036)"><path d=" M -4.419559910612106 -1.051654955306053 L -0.40000000000000036 -1.051654955306053 L -0.40000000000000036 2.967904955306053 L -4.419559910612106 2.967904955306053 Z" fill="#ffc632" transform="matrix(1,0,0,1,0,0)" fill-rule="nonzero" mask="url(#maskedIcon-f982898b-d577-4d70-8c07-d606b07d1a7c)"></path></g><g><path d=" M 0.1485 1.05 Q 0.132 1.05 0.1215 1.0395 Q 0.111 1.0290000000000001 0.111 1.0125 L 0.111 0.03750000000000009 Q 0.111 0.02100000000000013 0.1215 0.010499999999999954 Q 0.132 0 0.1485 0 L 0.558 0 Q 0.6795 0 0.76875 0.03750000000000009 Q 0.858 0.07500000000000007 0.90825 0.15075000000000005 Q 0.9585 0.22650000000000003 0.9585 0.3390000000000001 Q 0.9585 0.45300000000000007 0.90825 0.52725 Q 0.858 0.6015 0.76875 0.6375 Q 0.6795 0.6735 0.558 0.6735 L 0.357 0.6735 L 0.357 1.0125 Q 0.357 1.0290000000000001 0.34650000000000003 1.0395 Q 0.336 1.05 0.3195 1.05 L 0.1485 1.05 M 0.3525 0.48750000000000004 L 0.5505 0.48750000000000004 Q 0.627 0.48750000000000004 0.6697500000000001 0.45000000000000007 Q 0.7125 0.4125 0.7125 0.3375 Q 0.7125 0.2715000000000001 0.67425 0.22950000000000004 Q 0.636 0.1875 0.5505 0.1875 L 0.3525 0.1875 L 0.3525 0.48750000000000004 M 0.98095751953125 1.05 Q 0.96745751953125 1.05 0.95845751953125 1.0402500000000001 Q 0.94945751953125 1.0305 0.94945751953125 1.0185 Q 0.94945751953125 1.0110000000000001 0.95095751953125 1.0050000000000001 L 1.30795751953125 0.04049999999999998 Q 1.31245751953125 0.02400000000000002 1.32595751953125 0.01200000000000001 Q 1.33945751953125 0 1.36345751953125 0 L 1.55545751953125 0 Q 1.5794575195312501 0 1.59295751953125 0.01200000000000001 Q 1.60645751953125 0.02400000000000002 1.61095751953125 0.04049999999999998 L 1.96795751953125 1.0050000000000001 Q 1.96945751953125 1.0110000000000001 1.96945751953125 1.0185 Q 1.96945751953125 1.0305 1.96045751953125 1.0402500000000001 Q 1.95145751953125 1.05 1.93795751953125 1.05 L 1.78195751953125 1.05 Q 1.75945751953125 1.05 1.74895751953125 1.0395 Q 1.73845751953125 1.0290000000000001 1.73545751953125 1.02 L 1.67095751953125 0.8520000000000001 L 1.24795751953125 0.8520000000000001 L 1.18345751953125 1.02 Q 1.18045751953125 1.0290000000000001 1.16995751953125 1.0395 Q 1.15945751953125 1.05 1.13695751953125 1.05 L 0.98095751953125 1.05 M 1.3034575195312499 0.6585000000000001 L 1.61395751953125 0.6585000000000001 L 1.45945751953125 0.22650000000000003 L 1.3034575195312499 0.6585000000000001 M 2.1359267578125 1.05 Q 2.1194267578125 1.05 2.1089267578125 1.0395 Q 2.0984267578125 1.0290000000000001 2.0984267578125 1.0125 L 2.0984267578125 0.03750000000000009 Q 2.0984267578125 0.02100000000000013 2.1089267578125 0.010499999999999954 Q 2.1194267578125 0 2.1359267578125 0 L 2.5334267578125003 0 Q 2.7209267578125003 0 2.8289267578125 0.08625000000000005 Q 2.9369267578125 0.1725 2.9369267578125 0.3345 Q 2.9369267578125 0.44400000000000006 2.8844267578125002 0.5175000000000001 Q 2.8319267578125 0.591 2.7434267578125002 0.627 L 2.9549267578125002 1.002 Q 2.9594267578125 1.0110000000000001 2.9594267578125 1.0185 Q 2.9594267578125 1.0305 2.9504267578125 1.0402500000000001 Q 2.9414267578125 1.05 2.9279267578125 1.05 L 2.7614267578125 1.05 Q 2.7344267578125 1.05 2.7209267578125003 1.03575 Q 2.7074267578124998 1.0215 2.7014267578125 1.0095 L 2.5184267578125 0.666 L 2.3369267578125 0.666 L 2.3369267578125 1.0125 Q 2.3369267578125 1.0290000000000001 2.3264267578125 1.0395 Q 2.3159267578125 1.05 2.2994267578125 1.05 L 2.1359267578125 1.05 M 2.3369267578125 0.47550000000000003 L 2.5289267578125 0.47550000000000003 Q 2.6114267578125 0.47550000000000003 2.6511767578125003 0.43800000000000006 Q 2.6909267578125 0.4005000000000001 2.6909267578125 0.3330000000000001 Q 2.6909267578125 0.26550000000000007 2.6519267578125 0.22650000000000003 Q 2.6129267578125 0.1875 2.5289267578125 0.1875 L 2.3369267578125 0.1875 L 2.3369267578125 0.47550000000000003 M 3.15893701171875 1.05 Q 3.14243701171875 1.05 3.13193701171875 1.0395 Q 3.12143701171875 1.0290000000000001 3.12143701171875 1.0125 L 3.12143701171875 0.03750000000000009 Q 3.12143701171875 0.02100000000000013 3.13193701171875 0.010499999999999954 Q 3.14243701171875 0 3.15893701171875 0 L 3.31793701171875 0 Q 3.33443701171875 0 3.3449370117187502 0.010499999999999954 Q 3.35543701171875 0.02100000000000013 3.35543701171875 0.03750000000000009 L 3.35543701171875 0.37950000000000006 L 3.66443701171875 0.02849999999999997 Q 3.67043701171875 0.019500000000000073 3.68468701171875 0.009749999999999925 Q 3.69893701171875 0 3.72293701171875 0 L 3.90443701171875 0 Q 3.9179370117187498 0 3.92693701171875 0.009749999999999925 Q 3.93593701171875 0.019500000000000073 3.93593701171875 0.031500000000000083 Q 3.93593701171875 0.04200000000000004 3.92993701171875 0.0495000000000001 L 3.54443701171875 0.5025000000000001 L 3.95843701171875 1.0005 Q 3.96443701171875 1.0065 3.96443701171875 1.0185 Q 3.96443701171875 1.0305 3.9554370117187503 1.0402500000000001 Q 3.94643701171875 1.05 3.93293701171875 1.05 L 3.74543701171875 1.05 Q 3.71843701171875 1.05 3.70493701171875 1.038 Q 3.69143701171875 1.026 3.68693701171875 1.0215 L 3.35543701171875 0.6375 L 3.35543701171875 1.0125 Q 3.35543701171875 1.0290000000000001 3.3449370117187502 1.0395 Q 3.33443701171875 1.05 3.31793701171875 1.05 L 3.15893701171875 1.05 M 4.12939599609375 1.05 Q 4.11289599609375 1.05 4.10239599609375 1.0395 Q 4.09189599609375 1.0290000000000001 4.09189599609375 1.0125 L 4.09189599609375 0.03750000000000009 Q 4.09189599609375 0.02100000000000013 4.10239599609375 0.010499999999999954 Q 4.11289599609375 0 4.12939599609375 0 L 4.29889599609375 0 Q 4.31539599609375 0 4.32589599609375 0.010499999999999954 Q 4.33639599609375 0.02100000000000013 4.33639599609375 0.03750000000000009 L 4.33639599609375 1.0125 Q 4.33639599609375 1.0290000000000001 4.32589599609375 1.0395 Q 4.31539599609375 1.05 4.29889599609375 1.05 L 4.12939599609375 1.05 M 4.595857177734375 1.05 Q 4.579357177734375 1.05 4.568857177734375 1.0395 Q 4.558357177734375 1.0290000000000001 4.558357177734375 1.0125 L 4.558357177734375 0.03750000000000009 Q 4.558357177734375 0.02100000000000013 4.568857177734375 0.010499999999999954 Q 4.579357177734375 0 4.595857177734375 0 L 5.275357177734375 0 Q 5.291857177734375 0 5.302357177734375 0.010499999999999954 Q 5.312857177734375 0.02100000000000013 5.312857177734375 0.03750000000000009 L 5.312857177734375 0.15749999999999997 Q 5.312857177734375 0.1725 5.302357177734375 0.18300000000000005 Q 5.291857177734375 0.1935 5.275357177734375 0.1935 L 4.789357177734375 0.1935 L 4.789357177734375 0.42900000000000005 L 5.242357177734375 0.42900000000000005 Q 5.258857177734375 0.42900000000000005 5.269357177734375 0.4395 Q 5.279857177734375 0.45000000000000007 5.279857177734375 0.4665 L 5.279857177734375 0.5775 Q 5.279857177734375 0.5925 5.269357177734375 0.603 Q 5.258857177734375 0.6135 5.242357177734375 0.6135 L 4.789357177734375 0.6135 L 4.789357177734375 0.8565 L 5.287357177734375 0.8565 Q 5.3038571777343755 0.8565 5.314357177734375 0.867 Q 5.324857177734375 0.8775000000000001 5.324857177734375 0.894 L 5.324857177734375 1.0125 Q 5.324857177734375 1.0290000000000001 5.314357177734375 1.0395 Q 5.3038571777343755 1.05 5.287357177734375 1.05 L 4.595857177734375 1.05 M 5.540864501953125 1.05 Q 5.524364501953125 1.05 5.513864501953125 1.0395 Q 5.503364501953125 1.0290000000000001 5.503364501953125 1.0125 L 5.503364501953125 0.03750000000000009 Q 5.503364501953125 0.02100000000000013 5.513864501953125 0.010499999999999954 Q 5.524364501953125 0 5.540864501953125 0 L 6.220364501953125 0 Q 6.236864501953125 0 6.247364501953125 0.010499999999999954 Q 6.257864501953125 0.02100000000000013 6.257864501953125 0.03750000000000009 L 6.257864501953125 0.15749999999999997 Q 6.257864501953125 0.1725 6.247364501953125 0.18300000000000005 Q 6.236864501953125 0.1935 6.220364501953125 0.1935 L 5.734364501953125 0.1935 L 5.734364501953125 0.42900000000000005 L 6.187364501953125 0.42900000000000005 Q 6.203864501953125 0.42900000000000005 6.214364501953125 0.4395 Q 6.224864501953125 0.45000000000000007 6.224864501953125 0.4665 L 6.224864501953125 0.5775 Q 6.224864501953125 0.5925 6.214364501953125 0.603 Q 6.203864501953125 0.6135 6.187364501953125 0.6135 L 5.734364501953125 0.6135 L 5.734364501953125 0.8565 L 6.232364501953125 0.8565 Q 6.2488645019531255 0.8565 6.259364501953125 0.867 Q 6.269864501953125 0.8775000000000001 6.269864501953125 0.894 L 6.269864501953125 1.0125 Q 6.269864501953125 1.0290000000000001 6.259364501953125 1.0395 Q 6.2488645019531255 1.05 6.232364501953125 1.05 L 5.540864501953125 1.05" fill="#ffffff" fill-rule="nonzero"></path></g><g><path d=" M 0.0825 1.91625 Q 0.07425 1.91625 0.06975 1.911375 Q 0.06525 1.9065 0.06525 1.899 L 0.06525 1.4092500000000001 Q 0.06525 1.401 0.06975 1.396125 Q 0.07425 1.3912499999999999 0.0825 1.3912499999999999 L 0.273 1.3912499999999999 Q 0.3285 1.3912499999999999 0.369375 1.4092500000000001 Q 0.41025 1.42725 0.43275 1.462875 Q 0.45525 1.4985 0.45525 1.55175 Q 0.45525 1.605 0.43275 1.64025 Q 0.41025 1.6755 0.369375 1.6935 Q 0.3285 1.7115 0.273 1.7115 L 0.14025 1.7115 L 0.14025 1.899 Q 0.14025 1.9065 0.135375 1.911375 Q 0.1305 1.91625 0.12225 1.91625 L 0.0825 1.91625 M 0.1395 1.6485 L 0.26925 1.6485 Q 0.32475 1.6485 0.3525 1.62375 Q 0.38025000000000003 1.599 0.38025000000000003 1.55175 Q 0.38025000000000003 1.50525 0.35325 1.4797500000000001 Q 0.32625 1.45425 0.26925 1.45425 L 0.1395 1.45425 L 0.1395 1.6485 M 0.48266308593749996 1.91625 Q 0.47666308593749995 1.91625 0.47216308593749995 1.91175 Q 0.46766308593749994 1.9072500000000001 0.46766308593749994 1.90125 Q 0.46766308593749994 1.8975 0.4684130859374999 1.893 L 0.6544130859374999 1.40775 Q 0.6574130859374999 1.40025 0.6626630859374999 1.39575 Q 0.6679130859375 1.3912499999999999 0.6784130859374999 1.3912499999999999 L 0.7294130859374999 1.3912499999999999 Q 0.7399130859374999 1.3912499999999999 0.7451630859374999 1.39575 Q 0.7504130859375 1.40025 0.7534130859374999 1.40775 L 0.9386630859374999 1.893 Q 0.9401630859374999 1.8975 0.9401630859374999 1.90125 Q 0.9401630859374999 1.9072500000000001 0.9356630859374999 1.91175 Q 0.9311630859375 1.91625 0.9251630859375 1.91625 L 0.8869130859375 1.91625 Q 0.8779130859375 1.91625 0.8737880859375 1.91175 Q 0.8696630859374999 1.9072500000000001 0.8681630859375 1.9035 L 0.8269130859375 1.797 L 0.5809130859374999 1.797 L 0.5396630859374999 1.9035 Q 0.5389130859375 1.9072500000000001 0.5344130859374999 1.91175 Q 0.5299130859375 1.91625 0.5209130859375 1.91625 L 0.48266308593749996 1.91625 M 0.6026630859375 1.7325 L 0.8051630859374999 1.7325 L 0.7039130859375 1.46625 L 0.6026630859375 1.7325 M 1.0387752685546874 1.91625 Q 1.0305252685546873 1.91625 1.0260252685546873 1.911375 Q 1.0215252685546874 1.9065 1.0215252685546874 1.899 L 1.0215252685546874 1.4092500000000001 Q 1.0215252685546874 1.401 1.0260252685546873 1.396125 Q 1.0305252685546873 1.3912499999999999 1.0387752685546874 1.3912499999999999 L 1.2217752685546874 1.3912499999999999 Q 1.3065252685546873 1.3912499999999999 1.3560252685546874 1.431 Q 1.4055252685546873 1.47075 1.4055252685546873 1.54875 Q 1.4055252685546873 1.6065 1.3766502685546873 1.642875 Q 1.3477752685546873 1.67925 1.2982752685546874 1.6935 L 1.4137752685546874 1.893 Q 1.4160252685546872 1.8975 1.4160252685546872 1.90125 Q 1.4160252685546872 1.9072500000000001 1.4111502685546875 1.91175 Q 1.4062752685546873 1.91625 1.4002752685546873 1.91625 L 1.3642752685546875 1.91625 Q 1.3515252685546875 1.91625 1.3455252685546872 1.9095 Q 1.3395252685546875 1.90275 1.3350252685546873 1.896 L 1.2262752685546874 1.7055 L 1.0950252685546873 1.7055 L 1.0950252685546873 1.899 Q 1.0950252685546873 1.9065 1.0901502685546873 1.911375 Q 1.0852752685546874 1.91625 1.0770252685546873 1.91625 L 1.0387752685546874 1.91625 M 1.0950252685546873 1.64175 L 1.2187752685546873 1.64175 Q 1.2750252685546875 1.64175 1.3027752685546874 1.618125 Q 1.3305252685546873 1.5945 1.3305252685546873 1.548 Q 1.3305252685546873 1.50225 1.3031502685546874 1.47825 Q 1.2757752685546873 1.45425 1.2187752685546873 1.45425 L 1.0950252685546873 1.45425 L 1.0950252685546873 1.64175 M 1.5311722412109372 1.91625 Q 1.522922241210937 1.91625 1.5184222412109372 1.911375 Q 1.5139222412109372 1.9065 1.5139222412109372 1.899 L 1.5139222412109372 1.4092500000000001 Q 1.5139222412109372 1.401 1.5184222412109372 1.396125 Q 1.522922241210937 1.3912499999999999 1.5311722412109372 1.3912499999999999 L 1.5686722412109373 1.3912499999999999 Q 1.5769222412109372 1.3912499999999999 1.5817972412109371 1.396125 Q 1.586672241210937 1.401 1.586672241210937 1.4092500000000001 L 1.586672241210937 1.59525 L 1.7869222412109371 1.4032499999999999 Q 1.7899222412109372 1.40025 1.797047241210937 1.39575 Q 1.804172241210937 1.3912499999999999 1.8161722412109371 1.3912499999999999 L 1.856672241210937 1.3912499999999999 Q 1.8626722412109373 1.3912499999999999 1.867172241210937 1.39575 Q 1.8716722412109372 1.40025 1.8716722412109372 1.40625 Q 1.8716722412109372 1.41225 1.8686722412109371 1.416 L 1.6369222412109372 1.6425 L 1.8836722412109372 1.89075 Q 1.8874222412109372 1.89525 1.8874222412109372 1.90125 Q 1.8874222412109372 1.9072500000000001 1.8829222412109372 1.91175 Q 1.8784222412109373 1.91625 1.8724222412109373 1.91625 L 1.8304222412109372 1.91625 Q 1.8176722412109372 1.91625 1.8109222412109371 1.911375 Q 1.804172241210937 1.9065 1.8011722412109372 1.9035 L 1.586672241210937 1.69275 L 1.586672241210937 1.899 Q 1.586672241210937 1.9065 1.5817972412109371 1.911375 Q 1.5769222412109372 1.91625 1.5686722412109373 1.91625 L 1.5311722412109372 1.91625 M 2.160421142578125 1.91625 Q 2.152171142578125 1.91625 2.1476711425781247 1.911375 Q 2.1431711425781246 1.9065 2.1431711425781246 1.899 L 2.1431711425781246 1.4092500000000001 Q 2.1431711425781246 1.401 2.1476711425781247 1.396125 Q 2.152171142578125 1.3912499999999999 2.160421142578125 1.3912499999999999 L 2.198671142578125 1.3912499999999999 Q 2.2069211425781248 1.3912499999999999 2.211796142578125 1.396125 Q 2.2166711425781247 1.401 2.2166711425781247 1.4092500000000001 L 2.2166711425781247 1.61625 L 2.4746711425781247 1.61625 L 2.4746711425781247 1.4092500000000001 Q 2.4746711425781247 1.401 2.479546142578125 1.396125 Q 2.4844211425781246 1.3912499999999999 2.491921142578125 1.3912499999999999 L 2.5301711425781246 1.3912499999999999 Q 2.538421142578125 1.3912499999999999 2.5432961425781246 1.396125 Q 2.548171142578125 1.401 2.548171142578125 1.4092500000000001 L 2.548171142578125 1.899 Q 2.548171142578125 1.9065 2.5432961425781246 1.911375 Q 2.538421142578125 1.91625 2.5301711425781246 1.91625 L 2.491921142578125 1.91625 Q 2.4844211425781246 1.91625 2.479546142578125 1.911375 Q 2.4746711425781247 1.9065 2.4746711425781247 1.899 L 2.4746711425781247 1.68375 L 2.2166711425781247 1.68375 L 2.2166711425781247 1.899 Q 2.2166711425781247 1.9065 2.211796142578125 1.911375 Q 2.2069211425781248 1.91625 2.198671142578125 1.91625 L 2.160421142578125 1.91625 M 2.6970380859375 1.91625 Q 2.6887880859375 1.91625 2.6842880859375 1.911375 Q 2.6797880859374996 1.9065 2.6797880859374996 1.899 L 2.6797880859374996 1.4092500000000001 Q 2.6797880859374996 1.401 2.6842880859375 1.396125 Q 2.6887880859375 1.3912499999999999 2.6970380859375 1.3912499999999999 L 3.0067880859375 1.3912499999999999 Q 3.0150380859375 1.3912499999999999 3.0195380859374996 1.396125 Q 3.0240380859375 1.401 3.0240380859375 1.4092500000000001 L 3.0240380859375 1.4377499999999999 Q 3.0240380859375 1.446 3.0195380859374996 1.4505 Q 3.0150380859375 1.455 3.0067880859375 1.455 L 2.7517880859374997 1.455 L 2.7517880859374997 1.61925 L 2.9902880859375 1.61925 Q 2.9985380859374997 1.61925 3.0030380859375 1.624125 Q 3.0075380859375 1.629 3.0075380859375 1.6372499999999999 L 3.0075380859375 1.665 Q 3.0075380859375 1.6725 3.0030380859375 1.677375 Q 2.9985380859374997 1.68225 2.9902880859375 1.68225 L 2.7517880859374997 1.68225 L 2.7517880859374997 1.8525 L 3.0127880859375 1.8525 Q 3.0210380859374997 1.8525 3.0255380859375 1.857 Q 3.0300380859375 1.8615 3.0300380859375 1.86975 L 3.0300380859375 1.899 Q 3.0300380859375 1.9065 3.0255380859375 1.911375 Q 3.0210380859374997 1.91625 3.0127880859375 1.91625 L 2.6970380859375 1.91625 M 3.1526766357421874 1.91625 Q 3.1444266357421875 1.91625 3.1399266357421873 1.911375 Q 3.135426635742187 1.9065 3.135426635742187 1.899 L 3.135426635742187 1.4092500000000001 Q 3.135426635742187 1.401 3.1399266357421873 1.396125 Q 3.1444266357421875 1.3912499999999999 3.1526766357421874 1.3912499999999999 L 3.335676635742187 1.3912499999999999 Q 3.4204266357421873 1.3912499999999999 3.4699266357421874 1.431 Q 3.5194266357421875 1.47075 3.5194266357421875 1.54875 Q 3.5194266357421875 1.6065 3.4905516357421873 1.642875 Q 3.4616766357421875 1.67925 3.4121766357421874 1.6935 L 3.5276766357421874 1.893 Q 3.5299266357421875 1.8975 3.5299266357421875 1.90125 Q 3.5299266357421875 1.9072500000000001 3.5250516357421873 1.91175 Q 3.5201766357421875 1.91625 3.5141766357421873 1.91625 L 3.4781766357421873 1.91625 Q 3.4654266357421872 1.91625 3.4594266357421875 1.9095 Q 3.4534266357421872 1.90275 3.4489266357421875 1.896 L 3.3401766357421874 1.7055 L 3.2089266357421873 1.7055 L 3.2089266357421873 1.899 Q 3.2089266357421873 1.9065 3.2040516357421875 1.911375 Q 3.1991766357421874 1.91625 3.1909266357421875 1.91625 L 3.1526766357421874 1.91625 M 3.2089266357421873 1.64175 L 3.3326766357421875 1.64175 Q 3.3889266357421874 1.64175 3.4166766357421876 1.618125 Q 3.4444266357421873 1.5945 3.4444266357421873 1.548 Q 3.4444266357421873 1.50225 3.417051635742187 1.47825 Q 3.3896766357421875 1.45425 3.3326766357421875 1.45425 L 3.2089266357421873 1.45425 L 3.2089266357421873 1.64175 M 3.6450736083984374 1.91625 Q 3.6368236083984375 1.91625 3.6323236083984374 1.911375 Q 3.627823608398437 1.9065 3.627823608398437 1.899 L 3.627823608398437 1.4092500000000001 Q 3.627823608398437 1.401 3.6323236083984374 1.396125 Q 3.6368236083984375 1.3912499999999999 3.6450736083984374 1.3912499999999999 L 3.9548236083984376 1.3912499999999999 Q 3.9630736083984375 1.3912499999999999 3.967573608398437 1.396125 Q 3.9720736083984374 1.401 3.9720736083984374 1.4092500000000001 L 3.9720736083984374 1.4377499999999999 Q 3.9720736083984374 1.446 3.967573608398437 1.4505 Q 3.9630736083984375 1.455 3.9548236083984376 1.455 L 3.6998236083984373 1.455 L 3.6998236083984373 1.61925 L 3.9383236083984374 1.61925 Q 3.9465736083984373 1.61925 3.9510736083984375 1.624125 Q 3.9555736083984376 1.629 3.9555736083984376 1.6372499999999999 L 3.9555736083984376 1.665 Q 3.9555736083984376 1.6725 3.9510736083984375 1.677375 Q 3.9465736083984373 1.68225 3.9383236083984374 1.68225 L 3.6998236083984373 1.68225 L 3.6998236083984373 1.8525 L 3.9608236083984374 1.8525 Q 3.9690736083984373 1.8525 3.9735736083984374 1.857 Q 3.9780736083984376 1.8615 3.9780736083984376 1.86975 L 3.9780736083984376 1.899 Q 3.9780736083984376 1.9065 3.9735736083984374 1.911375 Q 3.9690736083984373 1.91625 3.9608236083984374 1.91625 L 3.6450736083984374 1.91625 M 4.27733349609375 1.79175 Q 4.269833496093749 1.79175 4.264958496093749 1.786875 Q 4.26008349609375 1.782 4.26008349609375 1.7745 L 4.26008349609375 1.4085 Q 4.26008349609375 1.401 4.264958496093749 1.396125 Q 4.269833496093749 1.3912499999999999 4.27733349609375 1.3912499999999999 L 4.312583496093749 1.3912499999999999 Q 4.3200834960937495 1.3912499999999999 4.32495849609375 1.396125 Q 4.32983349609375 1.401 4.32983349609375 1.4085 L 4.32983349609375 1.7745 Q 4.32983349609375 1.782 4.32495849609375 1.786875 Q 4.3200834960937495 1.79175 4.312583496093749 1.79175 L 4.27733349609375 1.79175 M 4.270583496093749 1.91625 Q 4.263083496093749 1.91625 4.25820849609375 1.911375 Q 4.25333349609375 1.9065 4.25333349609375 1.899 L 4.25333349609375 1.85175 Q 4.25333349609375 1.8435 4.25820849609375 1.838625 Q 4.263083496093749 1.83375 4.270583496093749 1.83375 L 4.3185834960937495 1.83375 Q 4.32608349609375 1.83375 4.33095849609375 1.838625 Q 4.335833496093749 1.8435 4.335833496093749 1.85175 L 4.335833496093749 1.899 Q 4.335833496093749 1.9065 4.33095849609375 1.911375 Q 4.32608349609375 1.91625 4.3185834960937495 1.91625 L 4.270583496093749 1.91625" fill="#faecd3" fill-rule="nonzero"></path></g></g><defs><clipPath id="SvgjsClipPath55036"><path d=" M -4.419559910612106 -1.051654955306053 h 4.019559910612106 v 4.019559910612106 h -4.019559910612106 Z"></path></clipPath><mask id="maskedIcon-f982898b-d577-4d70-8c07-d606b07d1a7c"><path d=" M -0.40000000000000036 0.9581249999999999 C -0.40000000000000036 2.0680959206602125 -1.2998090346458406 2.967904955306053 -2.4097799553060533 2.967904955306053 C -3.5197508759662655 2.967904955306053 -4.419559910612106 2.0680959206602125 -4.419559910612106 0.9581249999999999 C -4.419559910612106 -0.1518459206602124 -3.5197508759662655 -1.051654955306053 -2.4097799553060533 -1.051654955306053 C -1.2998090346458406 -1.051654955306053 -0.40000000000000036 -0.1518459206602124 -0.40000000000000036 0.9581249999999999 Z" fill="#ffffff" transform="matrix(1,0,0,1,0,0)" fill-rule="nonzero"></path><path d=" M -2.4097582771704116 1.6561392895146096 L -2.4545019491340794 1.5849482920685403 C -2.4750094654507615 1.5523877323352906 -2.9560472953314783 0.7839845363933382 -2.9560472953314783 0.4995240405080368 C -2.9556889366253145 0.19796550854464012 -2.711316809133777 -0.04640661894688303 -2.409758277170395 -0.04676497765303078 C -2.1081898543488338 -0.04643045884990071 -1.8638037778124725 0.19795561768646053 -1.8634692590093445 0.4995240405080368 C -1.8634692590093445 0.7839845363933353 -2.344507088890062 1.5523877323352875 -2.3649712489354613 1.5849482920685403 Z M -2.4097582771704116 0.058980968005290846 C -2.6529545382961244 0.059243818530008374 -2.8500384991484404 0.256327779382324 -2.850301349673158 0.4995240405080368 C -2.850301349673158 0.6902916341515835 -2.564540165649381 1.200768372233203 -2.4097582771704116 1.4560934538165782 C -2.2549763886914427 1.200768372233203 -1.9692152046676652 0.6900748527951714 -1.9692152046676652 0.4995240405080368 C -1.9694780551923836 0.25632777938232687 -2.1665620160446992 0.05924381853001126 -2.4097582771704116 0.05898096800529351 Z M -2.4097582771704116 0.8084808296680179 C -2.5816041903580444 0.8082896771957133 -2.7208651525073533 0.6690287150464058 -2.721056304979655 0.4971828018587745 C -2.720889043429515 0.32531995724130236 -2.58162109682739 0.18603261398922832 -2.409758277170415 0.18584141777825214 C -2.2378954575134355 0.18603261398922832 -2.098627510911309 0.3253199572412979 -2.098460249361168 0.4971828018587774 C -2.098651401833472 0.6690287150464129 -2.237912363982783 0.808289677195722 -2.409758277170418 0.8084808296680208 Z M -2.4097582771704116 0.2915440071652873 C -2.5232629866904115 0.29168737920198473 -2.6152342770769246 0.3836780646307558 -2.6153537155926174 0.4971828018587745 C -2.615210343618602 0.6106635663845483 -2.5232390694099935 0.7026154455542915 -2.4097582771703916 0.7027348840096963 C -2.296277484930809 0.7026154455542828 -2.2043062107222102 0.6106635663845297 -2.2041628387482066 0.4971828018587745 C -2.204282277263894 0.38367806463076737 -2.296253567650403 0.2916873792019934 -2.4097582771704014 0.29154400716529016 Z" fill="NA" transform="matrix(1,0,0,1,0,0)" fill-rule="nonzero"></path><path d=" M -1.6002966923238149 1.963014977653025 L -3.2191765057457262 1.963014977653025 L -2.896605847403001 1.1506051663592096 L -2.651296064485912 1.1506051663592096 C -2.6221000885224695 1.1506290974950875 -2.5984447599845493 1.1743038315527268 -2.598444769792394 1.2034998173240128 C -2.598444769792394 1.2326887813920555 -2.6221071004178684 1.2563511120175312 -2.6512960644859116 1.2563511120175312 L -2.82472114961641 1.2563511120175312 L -3.0631806416708445 1.8573123882659885 L -1.755815637414588 1.8573123882659885 L -1.9942751294690222 1.2563511120175312 L -2.1713854976585427 1.2563511120175312 C -2.200574461726586 1.2563511120175312 -2.224236792352061 1.2326887813920555 -2.224236792352061 1.2034998173240128 C -2.224236802176966 1.1743038315836336 -2.200581473652879 1.1506290975121711 -2.1713854976894496 1.1506051663592354 L -1.9225205004962787 1.1506051663592354 Z" fill="NA" transform="matrix(1,0,0,1,0,0)" fill-rule="nonzero"></path></mask></defs></svg>